PathFileType	4	(X/Y/Z)	59_1_52_p1_0-245.trc
DataRate	CameraRate	NumFrames	NumMarkers	Units	OrigDataRate	OrigDataStartFrame	OrigNumFrames
49.0	49.0	5	27	m	49.0	184	246
Frame#	Time	RHip			RKnee			RAnkle			RBigToe			RSmallToe			RHeel			LHip			LKnee			LAnkle			LBigToe			LSmallToe			LHeel			Neck			Head			Nose			RShoulder			RElbow			RWrist			RThumb			RIndex			RPinky			LShoulder			LElbow			LWrist			LThumb			LIndex			LPinky			
		X1	Y1	Z1	X2	Y2	Z2	X3	Y3	Z3	X4	Y4	Z4	X5	Y5	Z5	X6	Y6	Z6	X7	Y7	Z7	X8	Y8	Z8	X9	Y9	Z9	X10	Y10	Z10	X11	Y11	Z11	X12	Y12	Z12	X13	Y13	Z13	X14	Y14	Z14	X15	Y15	Z15	X16	Y16	Z16	X17	Y17	Z17	X18	Y18	Z18	X19	Y19	Z19	X20	Y20	Z20	X21	Y21	Z21	X22	Y22	Z22	X23	Y23	Z23	X24	Y24	Z24	X25	Y25	Z25	X26	Y26	Z26	X27	Y27	Z27	
184	3.7551020408163267	0.322374871342659	0.5761633500854877	1.1515626574499547	0.2852321301083417	0.5188762065942333	1.5219765231536357	0.2923459326954314	0.6569746637201068	1.8879533532188517	0.27546714566086256	0.5362461852897064	1.9280063977408917	0.33874676061452	0.5623057187448389	1.9241367339892177	0.2905012097352137	0.7898509521852224	1.9520872590604204	0.1030290875773367	0.55881910071891	1.1270358386380461	0.1125345287138031	0.47872134218551277	1.5023556647472478	0.11357480505324387	0.6922639546582956	1.8927617125046146	0.1263390991138944	0.5294024942818307	1.9172665328238525	0.0771774733304319	0.5742915780432498	1.9105654833094192	0.12612816104659583	0.7382112588674129	1.9252080626132775	0.23607144053017948	0.3737790388403901	0.5935573909872371	0.2449410607220038	0.33336475300253443	0.3494121603946882	0.2440542382946125	0.1971463249938915	0.47182515174020495	0.3571652026463	0.41061283811389815	0.6695882467033724	0.25923454568491083	0.06916541674897898	0.8275619774850217	0.26398336421081	0.027728518902188626	0.6627652516378034	0.27249174104403495	0.042613622760243476	0.586342388799855	0.2691839605826325	-0.006703804244043831	0.5734935973429458	0.2721679578634035	-0.07772734964483281	0.601027794734982	0.10192520471308596	0.36409935793866993	0.6414882267508332	0.1360694414144704	0.18211019313428195	0.8497610772434101	0.18313422401528337	0.13105241176846935	0.6897179925705347	0.14249847741367339	0.2060998466826444	0.6484156637553137	0.157531363035918	0.17454449167028474	0.6256705492570924	0.11855586955728238	0.09724013139526677	0.6719977392566232
185	3.7755102040816326	0.3223245277482478	0.5761952060296098	1.1515443016943718	0.28517362247401074	0.5186690909678784	1.521966250560705	0.29203429637306083	0.6880241551588769	1.9007853442077665	0.27511661774786444	0.5052801620889597	1.915519402580291	0.338015894848361	0.5591220828974044	1.9237675487909192	0.28629808187152184	0.8081976259521408	1.959349537891122	0.10323191505845203	0.5567053537686146	1.1304902222885298	0.1126978957605238	0.47854760551908493	1.5023154851572955	0.11327212957541148	0.6939508385175593	1.8894327505054613	0.12644559577881911	0.5292633858019834	1.9171362859462928	0.07720342590331983	0.5740817030312036	1.9105514797550611	0.1259573761865587	0.7383709010934454	1.924931162450868	0.23976760446279158	0.38592269959986286	0.5935255906583987	0.24064596580608175	0.3440780719735029	0.3448062003291545	0.24784823489858906	0.19871809764218248	0.47072893373230934	0.36433527888354283	0.3999202258143707	0.676452542253455	0.26971382665417437	0.09037417292983317	0.8178584801903775	0.2733645616353663	0.046480854876920615	0.6392380892997579	0.27839747491477784	0.07386715596956689	0.5715993867991543	0.2816431923186268	0.056534253475688336	0.5441096592197953	0.2831781413568553	-0.03504797673015858	0.5966047072040465	0.1085728402797747	0.389618675782884	0.6570164803007301	0.14389138064354184	0.20833051545224596	0.8638654579186483	0.20077423461423718	0.09340127911264032	0.6978763363501338	0.17933958306868547	0.12302211743973734	0.671369089016165	0.15470914063793295	0.08768622070696046	0.6476883225319574	0.13383476050202558	0.02714690823329767	0.676005167471016
186	3.795918367346939	0.32378420695773846	0.5803158425528379	1.1609023359768122	0.2814444112678527	0.5056302455317845	1.518476318627725	0.29236273438714583	0.657040333587426	1.8880182995007835	0.2784607572823199	0.5184431970765339	1.9209865746660333	0.3381498354383696	0.5598725165181595	1.9238210162674598	0.2907121389060049	0.7905675908465346	1.951590116782967	0.10445517156846224	0.5618696425569488	1.1403451054488478	0.11248999355713285	0.47877554729898225	1.502792007218999	0.11221021073691002	0.6910635844871268	1.8834639627666585	0.1263814398332497	0.5299267490123084	1.9175005941037995	0.07716411719456721	0.5745607446452936	1.91071000364681	0.12597605342247212	0.737741338004997	1.9248043317279158	0.24357337843628657	0.37440897855263616	0.5967856731367417	0.24401955219211477	0.3293473947335352	0.3462190940171821	0.2473287384675374	0.19624134799163723	0.46335558711845837	0.3647765273718088	0.39832560900311864	0.6802013627568586	0.2612284020372797	0.10247470396575838	0.8403174970596771	0.2650385159217232	0.07794574643386014	0.6542870403020584	0.2464655721482546	0.10155667078156069	0.5870573535697421	0.27350046090264074	0.08825216927686404	0.5513057446014551	0.2557870427534733	0.02641233500525944	0.5957697642587216	0.10524425286085945	0.3839964590144977	0.6659294404327728	0.1566122541389549	0.21084858452713792	0.8726459378189184	0.2502928476019653	0.2009514467944304	0.6956046919789146	0.151325088992473	0.024721160207383602	0.6829875404031018	0.15188691823994788	0.0008279497436361666	0.6697060958068225	0.1491136514467688	-0.04294631492867143	0.680012595685409
187	3.816326530612245	0.3238518434969184	0.5804624117013708	1.1613678039606372	0.2814128756984941	0.505723406906063	1.5185325597423311	0.2923411165797358	0.6571424543960379	1.8881626617049623	0.2750490691423722	0.50544956931326	1.9153933284282336	0.33801545364591806	0.5593216903066867	1.9236715459666378	0.28641502139749336	0.8080402494602194	1.9591631648815522	0.10452198262086179	0.561856701660258	1.1403136551924133	0.11249811390157687	0.4785238485599437	1.5025546612505354	0.11210998717965062	0.691035755400814	1.8834459465367026	0.12549590069552294	0.5266244045153607	1.9121859497191	0.07718019667238031	0.5741235338421117	1.9104983952583967	0.12605620472048581	0.7383383526968047	1.9250403740091244	0.2436860467818358	0.3736196197914227	0.6002940468199667	0.24451330554839368	0.3309851678990416	0.34930955404793346	0.24329096239959594	0.194102289964423	0.4641751455297966	0.3646549161553409	0.3992085004297498	0.6837450675362442	0.2673369378992889	0.12412095322702116	0.845351714195115	0.26513641687152567	0.0800716731524602	0.6638790294424979	0.25462710615849216	0.10291627517291815	0.5954854502574474	0.25896014610691714	0.05853241481491768	0.5807137234736774	0.2559058478391331	0.028746969610181958	0.6064802208923329	0.10493310416850458	0.38550585796720244	0.6660623012286958	0.16478689014359346	0.19922278877519245	0.8743634815425033	0.18885300188894108	0.019023663268553728	0.7139675129426452	0.1583850642598255	0.014416015318043507	0.6906884698115501	0.1630556577461899	-0.017319588229356885	0.6723467890227731	0.16439254239151202	-0.11303953809064055	0.6840200238998018
188	3.836734693877551	0.3233084923896558	0.5817085511582609	1.1659881283349833	0.2813977160955489	0.5053011017027748	1.518430406712786	0.29219589207922597	0.6570409020394111	1.8882402867587806	0.27396076491158167	0.5024638031222499	1.9103482842385178	0.3377461454112287	0.5615769127979823	1.919992788147066	0.28628151063355295	0.8078501989282771	1.9593565125773857	0.10577142155987154	0.5665930284353791	1.15053512009323	0.11006389465202833	0.46798363184941033	1.503704311878131	0.11224119068753845	0.6915348983430519	1.8835472998231617	0.12218052998173687	0.5151041626620944	1.902333198541956	0.08222015423211958	0.5595680012665813	1.9040583235980608	0.12820643241242405	0.7550630993026298	1.9364352187284821	0.24376542106581348	0.37366504704822867	0.6001556132847192	0.24533945820279465	0.3227149406975156	0.3503095273004792	0.24363411924840372	0.1957836629018842	0.46770244263004124	0.3646761491069128	0.39930283566814395	0.6837099290960227	0.26707799693272705	0.17058733270587947	0.8605557357601608	0.2559651662088524	0.07184704911454873	0.6757857252714607	0.2588684879463226	0.07754341102102875	0.6007362365096846	0.2561513392611043	0.05026028343921813	0.5969052700068804	0.2554230755883705	0.025326425744215356	0.61642402239652	0.10563359908262558	0.3873995101688646	0.6692529305769397	0.17284300053554005	0.15372704508154583	0.8704563077564442	0.17642684854703045	0.017485056877662702	0.713330244267012	0.1517293721444737	-0.015677438540356532	0.6746510030879315	0.1463166326276147	-0.08479940149799026	0.671446575455763	0.16386146744931548	-0.11151796638535176	0.6795755302585232
